/* XPM */
static char * stargate16_xpm[] = {
"16 16 182 2",
"  	c #FFFFFF",
". 	c #FEFFFF",
"+ 	c #E7F3F7",
"@ 	c #CDEDF4",
"# 	c #B5DAE7",
"$ 	c #A5C2D9",
"% 	c #AEC0D8",
"& 	c #F7F8FB",
"* 	c #FDFEFE",
"= 	c #EAF5F8",
"- 	c #A9D8E5",
"; 	c #8FCFE0",
"> 	c #719EBA",
", 	c #577BAB",
"' 	c #5377AC",
") 	c #5D7DB0",
"! 	c #C1C6DA",
"~ 	c #A6AECA",
"{ 	c #DBEEF4",
"] 	c #8DC9DC",
"^ 	c #90D2E3",
"/ 	c #67849F",
"( 	c #404971",
"_ 	c #4B6595",
": 	c #5173AA",
"< 	c #6F8CB8",
"[ 	c #9DA7C6",
"} 	c #405390",
"| 	c #9AA3C3",
"1 	c #FEFEFE",
"2 	c #E9F5F8",
"3 	c #8DCADB",
"4 	c #90D3E5",
"5 	c #79A1B6",
"6 	c #3D3352",
"7 	c #67708D",
"8 	c #96A3BB",
"9 	c #91A5C6",
"0 	c #A5B7D2",
"a 	c #818CB5",
"b 	c #405290",
"c 	c #B7BDD4",
"d 	c #ABD9E6",
"e 	c #8BC9DC",
"f 	c #90D1E2",
"g 	c #555B74",
"h 	c #A8A1AD",
"i 	c #FDFDFE",
"j 	c #7986B1",
"k 	c #445793",
"l 	c #445693",
"m 	c #5D6DA1",
"n 	c #F4F5F8",
"o 	c #E4F3F7",
"p 	c #8CCBDC",
"q 	c #90D2E2",
"r 	c #80B4C7",
"s 	c #B4AFB8",
"t 	c #FEFEFF",
"u 	c #E5E8F0",
"v 	c #566AA0",
"w 	c #4F649C",
"x 	c #4E649C",
"y 	c #BDC6DA",
"z 	c #C4E3ED",
"A 	c #8BC8DB",
"B 	c #8BC8DC",
"C 	c #8EC0D4",
"D 	c #CFE3ED",
"E 	c #CEE3ED",
"F 	c #C9DEEA",
"G 	c #EAF2F7",
"H 	c #FBFBFC",
"I 	c #BEC9DB",
"J 	c #BCC7DA",
"K 	c #C4CEDF",
"L 	c #7187B1",
"M 	c #5972A4",
"N 	c #5973A4",
"O 	c #99A9C7",
"P 	c #ABCDDF",
"Q 	c #7FB2CF",
"R 	c #7FAFCD",
"S 	c #7EADCD",
"T 	c #7DACCB",
"U 	c #7DAACA",
"V 	c #79A6C8",
"W 	c #D5E4EE",
"X 	c #E9ECF3",
"Y 	c #6181AD",
"Z 	c #6281AC",
"` 	c #6382AD",
" .	c #6584AF",
"..	c #6383AE",
"+.	c #8EA5C4",
"@.	c #9FBBD5",
"#.	c #739BC2",
"$.	c #739AC2",
"%.	c #7096BF",
"&.	c #6E91BC",
"*.	c #6D8FBB",
"=.	c #6A8DB9",
"-.	c #EBEFF6",
";.	c #D2DEE8",
">.	c #6D94B7",
",.	c #6F97B8",
"'.	c #6F94B7",
").	c #6E94B7",
"!.	c #6C93B6",
"~.	c #9BB5CD",
"{.	c #A9BCD5",
"].	c #6787B5",
"^.	c #6585B3",
"/.	c #6E8BB7",
"(.	c #B3C2DA",
"_.	c #AEBED7",
":.	c #AFBED6",
"<.	c #FBFBFD",
"[.	c #E0EAF0",
"}.	c #B1C9D9",
"|.	c #B7CDDC",
"1.	c #BAD0DE",
"2.	c #7EA6BE",
"3.	c #77A4BE",
"4.	c #BAD0DD",
"5.	c #CCD3E3",
"6.	c #5A74A8",
"7.	c #5B74A8",
"8.	c #576FA5",
"9.	c #D3D8E6",
"0.	c #C3BEC5",
"a.	c #78A4B4",
"b.	c #85BECA",
"c.	c #83B9C6",
"d.	c #E3EFF2",
"e.	c #FBFCFD",
"f.	c #6D7FAE",
"g.	c #4C619B",
"h.	c #4B5F99",
"i.	c #6475A7",
"j.	c #FAFBFC",
"k.	c #B7B0BB",
"l.	c #565A6F",
"m.	c #8DCCCF",
"n.	c #8BC8CB",
"o.	c #ADD9DB",
"p.	c #C7CCDD",
"q.	c #425390",
"r.	c #415390",
"s.	c #6E7CAA",
"t.	c #A4B3CD",
"u.	c #7C8DAD",
"v.	c #8D96AD",
"w.	c #696B85",
"x.	c #3B2D4C",
"y.	c #7699A4",
"z.	c #90D2D3",
"A.	c #91C9CC",
"B.	c #EDF6F7",
"C.	c #AEB5CF",
"D.	c #8F9ABE",
"E.	c #758FB9",
"F.	c #4A6594",
"G.	c #46567E",
"H.	c #3D3D63",
"I.	c #637B8E",
"J.	c #8FCFD1",
"K.	c #92CBCD",
"L.	c #E2F1F2",
"M.	c #BAC0D6",
"N.	c #C3C8DB",
"O.	c #6080B2",
"P.	c #4F6FA0",
"Q.	c #546F92",
"R.	c #7099A9",
"S.	c #92CFD1",
"T.	c #B4DBDD",
"U.	c #F1F8F8",
"V.	c #C1CFE1",
"W.	c #B7CEDB",
"X.	c #C5E1E4",
"Y.	c #DAF3F2",
"    .     + @ # $ % &     *     ",
"  .   = - ; > , ' )   ! ~   *   ",
".   { ] ^ / ( _ : <   [ } |   1 ",
"  2 3 4 5 6 7 8 9 0   a b b c   ",
"  d e f g h       i   j k l m n ",
"o p q r s   1 1 i t   u v w x y ",
"z A B C D E F G H I J K L M N O ",
"P Q R S T U V W X Y Z Z `  ...+.",
"@.#.$.%.&.*.=.-.;.>.,.'.).).!.~.",
"{.].^./.(._.:.<.[.}.|.1.2.3.3.4.",
"5.6.7.8.9.  1 i t 1   0.a.b.c.d.",
"e.f.g.h.i.j.        k.l.m.n.o.  ",
"  p.q.r.s.  t.u.v.w.x.y.z.A.B.  ",
"1   C.b D.  E.F.G.H.I.J.K.L.  . ",
"  1   M.N.  O.P.Q.R.S.T.U.  .   ",
"    1     j.V.W.X.Y.U.    .     "};
