/* XPM */
static char * stargate32_xpm[] = {
"32 32 539 2",
"  	c #FFFFFF",
". 	c #FEFEFF",
"+ 	c #FEFFFF",
"@ 	c #F8FBFC",
"# 	c #EFF7F9",
"$ 	c #EBF8FA",
"% 	c #EDFBFC",
"& 	c #F1FCFC",
"* 	c #F7FDFD",
"= 	c #FDFEFE",
"- 	c #FEFEFE",
"; 	c #EAF5F8",
"> 	c #C5E4ED",
", 	c #A8D6E3",
"' 	c #9BD4E3",
") 	c #92CFE0",
"! 	c #82BAD4",
"~ 	c #72A2C6",
"{ 	c #6993BC",
"] 	c #688DB8",
"^ 	c #7290BB",
"/ 	c #E7ECF3",
"( 	c #E0F1F5",
"_ 	c #A6D6E4",
": 	c #8BC9DC",
"< 	c #8BCADC",
"[ 	c #90D1E2",
"} 	c #7CB2CB",
"| 	c #5D84AF",
"1 	c #5072A9",
"2 	c #4D6EA7",
"3 	c #4F71A7",
"4 	c #4F72A9",
"5 	c #597BAD",
"6 	c #EFF2F6",
"7 	c #9FA7C5",
"8 	c #CED2E1",
"9 	c #FDFDFE",
"0 	c #F8FCFC",
"a 	c #B5DCE8",
"b 	c #8DCBDD",
"c 	c #90CFE1",
"d 	c #698DAB",
"e 	c #475B88",
"f 	c #496495",
"g 	c #5172A7",
"h 	c #5377AC",
"i 	c #5477AC",
"j 	c #5275AB",
"k 	c #6D8AB6",
"l 	c #6573A5",
"m 	c #40528F",
"n 	c #AAB2CC",
"o 	c #EEF7F9",
"p 	c #9DD1E1",
"q 	c #8DCEE0",
"r 	c #5D7895",
"s 	c #414A71",
"t 	c #485D86",
"u 	c #4D6693",
"v 	c #4E6EA0",
"w 	c #5275AA",
"x 	c #5577AC",
"y 	c #5174AA",
"z 	c #8099C0",
"A 	c #F5F6F9",
"B 	c #54659A",
"C 	c #405290",
"D 	c #8E98BB",
"E 	c #EDF6F9",
"F 	c #97CFE0",
"G 	c #8ACADC",
"H 	c #8DCCDE",
"I 	c #8AC9DB",
"J 	c #90D3E5",
"K 	c #657F98",
"L 	c #3D3B5F",
"M 	c #485478",
"N 	c #4B5C82",
"O 	c #4B628D",
"P 	c #4D699A",
"Q 	c #5071A7",
"R 	c #5678AD",
"S 	c #99ADCC",
"T 	c #E4E6EF",
"U 	c #425491",
"V 	c #445693",
"W 	c #919BBD",
"X 	c #F7FBFC",
"Y 	c #9ED2E1",
"Z 	c #8BC9DB",
"` 	c #8FD2E4",
" .	c #77A1B7",
"..	c #3E3351",
"+.	c #464768",
"@.	c #454C70",
"#.	c #46547A",
"$.	c #495D85",
"%.	c #4B6491",
"&.	c #4F6EA0",
"*.	c #B1C0D8",
"=.	c #CFD3E2",
"-.	c #425492",
";.	c #425490",
">.	c #445692",
",.	c #AFB6CF",
"'.	c #B5DCE9",
").	c #8BCADD",
"!.	c #8BCBDC",
"~.	c #4F5069",
"{.	c #3E324F",
"].	c #43405F",
"^.	c #5F6380",
"/.	c #A2A7B9",
"(.	c #CDD1DC",
"_.	c #DFE3E9",
":.	c #E1E5EC",
"<.	c #D8DFEB",
"[.	c #B5C2D9",
"}.	c #DFE4EE",
"|.	c #B7BDD3",
"1.	c #435593",
"2.	c #415390",
"3.	c #425391",
"4.	c #405291",
"5.	c #485994",
"6.	c #E1E3EC",
"7.	c #DEEFF4",
"8.	c #8CCBDC",
"9.	c #8CCBDD",
"0.	c #769DB2",
"a.	c #3C2B46",
"b.	c #473D57",
"c.	c #ABA8B4",
"d.	c #FCFCFD",
"e.	c #98A2C3",
"f.	c #465793",
"g.	c #455793",
"h.	c #828DB4",
"i.	c #A7D7E4",
"j.	c #8DCCDC",
"k.	c #8CCADC",
"l.	c #91D3E5",
"m.	c #58637C",
"n.	c #47374F",
"o.	c #D2D0D6",
"p.	c #FCFDFE",
"q.	c #B5BCD3",
"r.	c #475A95",
"s.	c #485C96",
"t.	c #475B95",
"u.	c #485B96",
"v.	c #DFE1EC",
"w.	c #E4F2F7",
"x.	c #8BC9DD",
"y.	c #8DCADC",
"z.	c #8BCBDD",
"A.	c #8CCDDF",
"B.	c #87C2D5",
"C.	c #48425B",
"D.	c #C9C5CB",
"E.	c #FBFBFC",
"F.	c #9DA8C7",
"G.	c #4C619A",
"H.	c #4E639B",
"I.	c #4D629A",
"J.	c #4F639C",
"K.	c #A1ACC9",
"L.	c #BEE1EC",
"M.	c #8ECBDD",
"N.	c #92D5E5",
"O.	c #78A2B7",
"P.	c #9C94A1",
"Q.	c #FBFBFB",
"R.	c #F6F7F9",
"S.	c #6679A9",
"T.	c #52689E",
"U.	c #53699F",
"V.	c #52699E",
"W.	c #536A9F",
"X.	c #51689E",
"Y.	c #7487B1",
"Z.	c #A2D4E3",
"`.	c #8DCCDD",
" +	c #8ECFE1",
".+	c #90B3C2",
"++	c #F8F8F8",
"@+	c #9BA9C7",
"#+	c #566EA2",
"$+	c #5970A2",
"%+	c #566FA2",
"&+	c #5870A2",
"*+	c #576FA2",
"=+	c #6076A7",
"-+	c #E9ECF2",
";+	c #F1F8FA",
">+	c #91CADD",
",+	c #8AC6DB",
"'+	c #89C5DA",
")+	c #89C3D9",
"!+	c #88C1D8",
"~+	c #87BFD7",
"{+	c #94C5DA",
"]+	c #A3CCDF",
"^+	c #9FC8DC",
"/+	c #9EC6DC",
"(+	c #9EC5DB",
"_+	c #9AC2D8",
":+	c #A9CADD",
"<+	c #E9EDF3",
"[+	c #7F94B9",
"}+	c #7F94B8",
"|+	c #7E94B8",
"1+	c #8196BA",
"2+	c #6D86AF",
"3+	c #5B76A6",
"4+	c #5C77A6",
"5+	c #5D78A7",
"6+	c #D3DAE7",
"7+	c #E1EEF4",
"8+	c #84B9D4",
"9+	c #83B8D3",
"0+	c #81B7D2",
"a+	c #81B5D1",
"b+	c #80B3D0",
"c+	c #7FB1CF",
"d+	c #7EB1CF",
"e+	c #7DAFCD",
"f+	c #7DAECD",
"g+	c #7DADCC",
"h+	c #7BABCB",
"i+	c #7DABCB",
"j+	c #7AA9C9",
"k+	c #99BCD5",
"l+	c #D2DAE6",
"m+	c #5F7EAB",
"n+	c #6180AC",
"o+	c #607FAB",
"p+	c #607FAC",
"q+	c #617EAC",
"r+	c #607EAC",
"s+	c #6381AD",
"t+	c #617FAB",
"u+	c #C5D0E0",
"v+	c #D5E4EE",
"w+	c #7CACCC",
"x+	c #7DACCB",
"y+	c #7CAACB",
"z+	c #7BA8C8",
"A+	c #79A7C7",
"B+	c #79A5C7",
"C+	c #7AA5C7",
"D+	c #7AA4C6",
"E+	c #79A2C6",
"F+	c #78A1C5",
"G+	c #7AA2C6",
"H+	c #749EC3",
"I+	c #ACC5DB",
"J+	c #BCCADC",
"K+	c #6486AF",
"L+	c #6989B1",
"M+	c #6787B0",
"N+	c #6788B1",
"O+	c #6787B1",
"P+	c #6586B0",
"Q+	c #6687AF",
"R+	c #6587AF",
"S+	c #6788B0",
"T+	c #6487AF",
"U+	c #C2D0E0",
"V+	c #D1DFEB",
"W+	c #77A2C5",
"X+	c #78A2C4",
"Y+	c #77A0C4",
"Z+	c #759FC4",
"`+	c #769DC3",
" @	c #749CC3",
".@	c #749BC2",
"+@	c #749AC1",
"@@	c #7398C0",
"#@	c #7297C0",
"$@	c #7196C0",
"%@	c #6E93BE",
"&@	c #BECEE1",
"*@	c #A7BCD2",
"=@	c #6A8EB4",
"-@	c #6C90B5",
";@	c #6B8EB4",
">@	c #6B8FB5",
",@	c #6A8FB5",
"'@	c #6C8FB6",
")@	c #C9D6E4",
"!@	c #D5E1EC",
"~@	c #7198C0",
"{@	c #7197C0",
"]@	c #7095BF",
"^@	c #6F94BF",
"/@	c #6C92BD",
"(@	c #6C90BC",
"_@	c #6B8FBC",
":@	c #6A8EBB",
"<@	c #6A8DBA",
"[@	c #6A8CB9",
"}@	c #6B8CB9",
"|@	c #6889B7",
"1@	c #D2DCE9",
"2@	c #95B1CA",
"3@	c #6F97B8",
"4@	c #7198B9",
"5@	c #6F97B7",
"6@	c #6F98B7",
"7@	c #7098B7",
"8@	c #7197B7",
"9@	c #7097B7",
"0@	c #D9E3EB",
"a@	c #E2E9F1",
"b@	c #6D8EBB",
"c@	c #6A8BB8",
"d@	c #688AB8",
"e@	c #6989B7",
"f@	c #6688B6",
"g@	c #6989B6",
"h@	c #6E8CB8",
"i@	c #6D8BB8",
"j@	c #6C8AB6",
"k@	c #6C89B5",
"l@	c #6A87B4",
"m@	c #6A86B3",
"n@	c #E7EBF2",
"o@	c #FBFCFD",
"p@	c #8CAFC6",
"q@	c #76A1BC",
"r@	c #7BA4BE",
"s@	c #7BA4BF",
"t@	c #7AA3BE",
"u@	c #7CA4BF",
"v@	c #7AA5C1",
"w@	c #749FBC",
"x@	c #759FBC",
"y@	c #74A0BC",
"z@	c #7BA5BF",
"A@	c #EDF3F6",
"B@	c #F5F7FA",
"C@	c #7591BB",
"D@	c #6483B2",
"E@	c #6481B0",
"F@	c #617EAE",
"G@	c #7C93BC",
"H@	c #F4F6F9",
"I@	c #F0F2F7",
"J@	c #F1F3F7",
"K@	c #F0F3F7",
"L@	c #F3F7F9",
"M@	c #F2F6F9",
"N@	c #F5F5F6",
"O@	c #8EAABC",
"P@	c #7AABC2",
"Q@	c #7BA9C0",
"R@	c #7BA8C0",
"S@	c #7CAAC1",
"T@	c #7AA9C0",
"U@	c #95B9CC",
"V@	c #8EA1C4",
"W@	c #5E79AA",
"X@	c #5F7AAA",
"Y@	c #5E78A9",
"Z@	c #5D77A8",
"`@	c #5C76A8",
" #	c #5A74A7",
".#	c #D9DEEA",
"+#	c #FDFDFD",
"@#	c #B9B2BB",
"##	c #6C8EA2",
"$#	c #84BBCB",
"%#	c #7FB1C3",
"&#	c #80B2C4",
"*#	c #81B3C5",
"=#	c #7FB2C4",
"-#	c #BAD5DF",
";#	c #BCC5DA",
">#	c #5770A6",
",#	c #5971A7",
"'#	c #566FA5",
")#	c #566EA4",
"!#	c #566CA5",
"~#	c #546BA3",
"{#	c #7183B1",
"]#	c #F2F4F7",
"^#	c #E2E0E4",
"/#	c #534B62",
"(#	c #7DB0BC",
"_#	c #86C0CA",
":#	c #83BCC7",
"<#	c #83BDC8",
"[#	c #E6F1F4",
"}#	c #5F74A7",
"|#	c #5167A0",
"1#	c #50669E",
"2#	c #4E649D",
"3#	c #50659D",
"4#	c #4D629C",
"5#	c #7A89B3",
"6#	c #FCFDFD",
"7#	c #EAEAEC",
"8#	c #5A4C62",
"9#	c #53596E",
"0#	c #8FD0D3",
"a#	c #89C6CA",
"b#	c #8AC7CB",
"c#	c #8CC8CC",
"d#	c #ACD7D9",
"e#	c #A2ADCA",
"f#	c #4A5F99",
"g#	c #4D619A",
"h#	c #485C97",
"i#	c #495D96",
"j#	c #465995",
"k#	c #6B7AA9",
"l#	c #C2BFC8",
"m#	c #544A62",
"n#	c #3B2944",
"o#	c #71919D",
"p#	c #91D2D4",
"q#	c #8BC7CA",
"r#	c #8CC9CC",
"s#	c #8DC9CC",
"t#	c #8CC8CB",
"u#	c #E5F3F3",
"v#	c #606FA1",
"w#	c #435592",
"x#	c #455692",
"y#	c #8994B9",
"z#	c #E5E9F1",
"A#	c #90A1C0",
"B#	c #B6C0D1",
"C#	c #C9CFDA",
"D#	c #CCD1DB",
"E#	c #C3C6D2",
"F#	c #A3A5B5",
"G#	c #67667F",
"H#	c #423B59",
"I#	c #40324E",
"J#	c #49455C",
"K#	c #89C4C8",
"L#	c #8CC9CD",
"M#	c #8BC8CB",
"N#	c #8EC9CC",
"O#	c #C0E0E3",
"P#	c #D0D4E2",
"Q#	c #425392",
"R#	c #ABB3CC",
"S#	c #C6D1E2",
"T#	c #4C6C9E",
"U#	c #4D6694",
"V#	c #4A5F88",
"W#	c #47587F",
"X#	c #465176",
"Y#	c #464B6E",
"Z#	c #444465",
"`#	c #454160",
" $	c #3D2E4C",
".$	c #71939F",
"+$	c #8FD2D3",
"@$	c #8AC6CA",
"#$	c #8ECACC",
"$$	c #A8D6D8",
"%$	c #B7BED4",
"&$	c #415290",
"*$	c #455693",
"=$	c #CBD0E0",
"-$	c #AABBD5",
";$	c #4E6EA3",
">$	c #516C9C",
",$	c #495C84",
"'$	c #49577C",
")$	c #495174",
"!$	c #484C6D",
"~$	c #3D3456",
"{$	c #5E6F82",
"]$	c #8FD0D1",
"^$	c #8CC7CA",
"/$	c #8DCACD",
"($	c #A2D2D5",
"_$	c #F7FBFB",
":$	c #B7BDD4",
"<$	c #435490",
"[$	c #475A94",
"}$	c #E7E9F0",
"|$	c #8EA5C8",
"1$	c #4F6B9D",
"2$	c #4B6490",
"3$	c #495E86",
"4$	c #49597F",
"5$	c #465275",
"6$	c #3F3F64",
"7$	c #5B6C83",
"8$	c #8ECACD",
"9$	c #D2D6E3",
"0$	c #516098",
"a$	c #58689D",
"b$	c #7792BB",
"c$	c #5173AA",
"d$	c #5070A2",
"e$	c #4C6796",
"f$	c #495E8A",
"g$	c #42527C",
"h$	c #455076",
"i$	c #68869B",
"j$	c #8ECCCF",
"k$	c #8CCACD",
"l$	c #8AC7CA",
"m$	c #90CACD",
"n$	c #CAE5E6",
"o$	c #FEFFFE",
"p$	c #ECEEF3",
"q$	c #BAC0D5",
"r$	c #F2F4F8",
"s$	c #5D7DB0",
"t$	c #5072AA",
"u$	c #4D6DA4",
"v$	c #4A6597",
"w$	c #4E6892",
"x$	c #60829D",
"y$	c #80B2BC",
"z$	c #90D0D1",
"A$	c #94CBCE",
"B$	c #BCDFE0",
"C$	c #F1F8F8",
"D$	c #94AACB",
"E$	c #85A4C4",
"F$	c #82A7C2",
"G$	c #87B2C3",
"H$	c #94C5CC",
"I$	c #A3D7D8",
"J$	c #ADDBDC",
"K$	c #BDDEE0",
"L$	c #DBEEEE",
"M$	c #F9FCFC",
"N$	c #FCFFFE",
"                . +       @ # $ % & *         = -               ",
"              +     ; > , ' ) ! ~ { ] ^ /   .     =             ",
"          + +   ( _ : < [ } | 1 2 3 4 5 6     7 8   9           ",
"        +   0 a < < b c d e f g h i j k 9     l m n   =         ",
"      +   o p < b b q r s t u v w x y z     A B C C D   .       ",
"    +   E F G H I J K L M N O P Q R y S     T U C V C W   =     ",
"      X Y < H Z `  ...+.@.#.$.%.&.i y *.    =.C -.;.>.C ,.  9   ",
"  +   '.).b < !.H ~.{.].^./.(._.:.<.[.}.    |.C 1.2.3.4.5.6.  - ",
".   7.< 8.9.I J 0.a.b.c.d.              d.  e.3.f.U U g.U h.  = ",
"    i.!.j.k.I l.m.n.o.  9 d.9 - - - p.. -   q.r.s.t.t.t.t.u.v.  ",
"  w.x.y.z.< A.B.C.D.  E..                 -   F.G.H.I.I.J.G.K.  ",
"  L.< M.< Z N.O.P.  Q.+ + +               .   R.S.T.U.V.W.X.Y.  ",
"  Z.9.`.9.8. +.+++                          9   @+#+$+%+&+*+=+-+",
";+>+,+'+)+!+~+{+]+^+^+/+(+_+:+p.  <+[+}+}+}+|+1+2+3+4+3+5+5+4+6+",
"7+8+9+0+a+b+c+d+e+f+g+h+i+j+k+    l+m+n+o+m+m+m+m+p+q+r+n+s+t+u+",
"v+w+x+y+j+z+A+B+C+D+E+F+G+H+I+    J+K+L+M+N+O+O+O+P+Q+R+Q+S+T+U+",
"V+W+X+Y+Z+`+ @.@+@@@#@$@#@%@&@    *@=@-@;@;@;@;@>@,@>@,@>@'@,@)@",
"!@~@{@]@^@%@/@(@_@:@<@[@}@|@1@    2@3@4@3@3@3@3@5@6@6@6@7@8@9@0@",
"a@b@[@c@d@e@f@g@h@i@j@k@l@m@n@  o@p@q@r@s@r@t@u@v@w@x@w@x@y@z@A@",
"B@C@D@D@E@E@F@G@H@I@J@J@K@J@-   - L@M@M@M@M@M@N@O@P@Q@R@S@T@U@  ",
"  V@W@X@Y@Z@`@ #.#  -                     +#  @###$#%#&#*#=#-#  ",
"  ;#>#,#'#)#!#~#{#]#  - + +       + + + E.  ^#/#(#_#:#<#<#<#[#  ",
"  I@}#|#|#1#2#3#4#5#    . 9 6#9 +#+#d.9   7#8#9#0#a#b#c#b#d#    ",
"9   e#f#g#h#s.i#j#k#                    l#m#n#o#p#q#r#s#t#u#  + ",
".   A v#w#x#U x#2.y#    z#A#B#C#D#E#F#G#H#I#J#K#L#M#N#M#O#  -   ",
"  -   P#;.Q#3.w#C R#    S#T#U#V#W#X#Y#Z#`# $.$+$@$#$M#$$=       ",
"    9   %$&$w#*$C =$    -$;$>$O ,$'$)$!$~${$]$^$/$M#($_$        ",
"      9   :$<$4.[$}$    |$3 1$2$3$4$5$6$7$/$8$r#M#d#@   +       ",
"        9   9$0$a$+#    b$c$d$e$f$g$h$i$j$k$l$m$n$o$            ",
"          9   p$q$    r$s$t$u$v$w$x$y$z$M#A$B$C$  +             ",
"            -     .   J@D$E$F$G$H$I$J$K$L$M$    -               ",
"              . 9             + N$-         - +                 "};
